<svg xmlns="http://www.w3.org/2000/svg" xmlns:svg="http://www.w3.org/2000/svg" id="svg3891" width="2048" height="2048" version="1.1"><metadata id="metadata3896"/><g id="layer1" transform="translate(0,995.63783)"><g id="layer1-6" transform="matrix(96.752895,0,0,96.752895,55.328158,-100816.34)"><path id="path7791" d="m 1866.4062,206.6875 c 0,0 -585.4533,298.7241 -882.8437,438.40625 63.7073,58.17752 122.9637,120.92602 184.4375,181.40625 -302.3528,306.3874 -604.7097,612.7689 -907.0625,919.1562 22.17254,21.1599 44.32746,42.3089 66.5,63.4688 C 629.7903,1502.7376 932.1472,1196.3874 1234.5,890 c 61.5877,61.37036 122.8273,123.0865 184.4375,184.4375 158.8449,-312.83114 447.4687,-867.75 447.4687,-867.75 z" transform="matrix(0.01033561,0,0,0.01033561,-0.57185015,1031.7077)" style="font-size:medium;font-style:normal;font-variant:normal;font-weight:400;font-stretch:normal;text-indent:0;text-align:start;text-decoration:none;line-height:normal;letter-spacing:normal;word-spacing:normal;text-transform:none;direction:ltr;block-progression:tb;writing-mode:lr-tb;text-anchor:start;baseline-shift:baseline;color:#000;fill:#000;fill-opacity:1;fill-rule:nonzero;stroke:none;stroke-width:.95637447;marker:none;visibility:visible;display:inline;overflow:visible;enable-background:accumulate;font-family:Sans;-inkscape-font-specification:Sans"/></g></g></svg>