<svg xmlns="http://www.w3.org/2000/svg" xmlns:svg="http://www.w3.org/2000/svg" id="svg966" width="21" height="21" version="1.1" viewBox="0 0 21 21"><metadata id="metadata972"/><path style="fill:#fff" id="path1564" d="M 14.15918,17 H 6.8408203 v 4 H 14.15918 Z M 6.8408203,0 v 15 h 3.6992187 c 2.4,0 3.601563,-1.2 3.601563,-3.5 V 10.300781 C 14.141602,8.7007812 13.64043,7.5 12.44043,7 c 1,-0.5 1.40039,-1.5 1.40039,-3 V 3.4003906 C 13.84082,1.2003906 12.84043,0 10.44043,0 Z M 9.2412109,2.0996094 H 10.44043 c 0.9,0 1.201172,0.4996093 1.201172,1.5996094 V 4.5 c 0,1.2 -0.500391,1.5996094 -1.400391,1.5996094 H 9.2412109 Z m -0.099609,6.3007812 h 1.0996091 c 1,0 1.5,0.3988282 1.5,1.7988284 V 11.5 c 0,1.1 -0.401171,1.5 -1.201172,1.5 H 9.1416015 Z"/></svg>