<svg xmlns="http://www.w3.org/2000/svg" xmlns:svg="http://www.w3.org/2000/svg" id="svg3891" width="2048" height="2048" version="1.1"><metadata id="metadata3896"/><g id="layer1" transform="translate(0,995.63783)"><g id="layer1-6" transform="matrix(96.752895,0,0,96.752895,55.328158,-100816.34)"><path id="path7791" d="m 18.824568,1032.807 -8.687516,2.3159 1.346468,1.9962 -10.2844635,6.937 0.5312319,0.7874 10.2844616,-6.937 1.309436,1.9415 5.500223,-7.0409 z" style="color:#000;font-style:normal;font-variant:normal;font-weight:400;font-stretch:normal;font-size:medium;line-height:normal;font-family:Sans;-inkscape-font-specification:Sans;text-indent:0;text-align:start;text-decoration:none;text-decoration-line:none;letter-spacing:normal;word-spacing:normal;text-transform:none;direction:ltr;block-progression:tb;writing-mode:lr-tb;baseline-shift:baseline;text-anchor:start;display:inline;overflow:visible;visibility:visible;fill:#000;fill-opacity:1;fill-rule:nonzero;stroke:none;stroke-width:.95637447;marker:none;enable-background:accumulate"/><path id="path7791-2" d="m 2.0134261,1050.4388 -0.8143696,0.5494 0.5312251,0.7875 0.8143661,-0.5493 z m 11.2937859,-3.6473 5.500199,-7.0408 1.61e-4,-10e-5 -8.687513,2.3158 z m -3.151968,-1.8444 -1.3283668,0.896 0.5312293,0.7875 1.3283585,-0.8959 z m -2.6568201,1.792 -1.3284405,0.896 0.5312029,0.7877 1.3284638,-0.8961 z m -2.8281789,1.9077 -1.3284593,0.8961 0.5312215,0.7876 1.3284698,-0.8963 z" style="color:#000;font-style:normal;font-variant:normal;font-weight:400;font-stretch:normal;font-size:medium;line-height:normal;font-family:Sans;-inkscape-font-specification:Sans;text-indent:0;text-align:start;text-decoration:none;text-decoration-line:none;letter-spacing:normal;word-spacing:normal;text-transform:none;direction:ltr;block-progression:tb;writing-mode:lr-tb;baseline-shift:baseline;text-anchor:start;display:inline;overflow:visible;visibility:visible;fill:#000;fill-opacity:1;fill-rule:nonzero;stroke:none;stroke-width:.95637447;marker:none;enable-background:accumulate"/></g></g></svg>