<svg xmlns="http://www.w3.org/2000/svg" xmlns:svg="http://www.w3.org/2000/svg" id="svg2" width="2000" height="2000" version="1.1" viewBox="0 0 2000 2000"><defs id="defs4"><marker style="overflow:visible" id="InfiniteLineStart" orient="auto" refX="0" refY="0"><g id="g4460" transform="translate(-13,0)" style="fill:#000"><circle id="circle4462" cx="3" cy="0" r=".8"/><circle id="circle4464" cx="6.5" cy="0" r=".8"/><circle id="circle4466" cx="10" cy="0" r=".8"/></g></marker><marker id="Torso" orient="auto" refX="0" refY="0" style="overflow:visible"><g id="g4428" transform="scale(0.7)"><path id="path4430" d="M -4.7792281,-3.2395420 C -2.4288541,-2.8736027 0.52103922,-1.3019943 0.25792722,0.38794346 C -0.0051877922,2.0778819 -2.2126741,2.6176539 -4.5630471,2.2517169 C -6.9134221,1.8857769 -8.5210350,0.75201414 -8.2579220,-0.93792336 C -7.9948090,-2.6278615 -7.1296041,-3.6054813 -4.7792281,-3.2395420 z" style="fill:none;fill-opacity:.75;fill-rule:evenodd;stroke:#000;stroke-width:1.25"/><path id="path4432" d="M 4.4598789,0.088665736 C -2.5564571,-4.3783320 5.2248769,-3.9061806 -0.84829578,-8.7197331" style="fill:none;fill-opacity:.75;fill-rule:evenodd;stroke:#000;stroke-width:1pt"/><path id="path4434" d="M 4.9298719,0.057520736 C -1.3872731,1.7494689 1.8027579,5.4782079 -4.9448731,7.5462725" style="fill:none;fill-opacity:.75;fill-rule:evenodd;stroke:#000;stroke-width:1pt"/><rect id="rect4436" width="2.637" height="2.761" x="-10.392" y="-1.741" transform="matrix(0.527536,-0.849533,0.887668,0.460484,0,0)" style="fill-rule:evenodd;stroke-width:1pt"/><rect id="rect4438" width="2.733" height="2.861" x="4.959" y="-7.963" transform="matrix(0.671205,-0.741272,0.790802,0.612072,0,0)" style="fill-rule:evenodd;stroke-width:1pt"/><path id="path4440" d="M 16.779951 -28.685045 A 0.60731727 0.60731727 0 1 0 15.565317,-28.685045 A 0.60731727 0.60731727 0 1 0 16.779951 -28.685045 z" transform="matrix(0,-1.109517,1.109517,0,25.96648,19.71619)" style="fill:red;fill-opacity:.75;fill-rule:evenodd;stroke:#000;stroke-width:1pt"/><path id="path4442" d="M 16.779951 -28.685045 A 0.60731727 0.60731727 0 1 0 15.565317,-28.685045 A 0.60731727 0.60731727 0 1 0 16.779951 -28.685045 z" transform="matrix(0,-1.109517,1.109517,0,26.82450,16.99126)" style="fill:red;fill-opacity:.75;fill-rule:evenodd;stroke:#000;stroke-width:1pt"/></g></marker><marker id="Arrow1Mend" orient="auto" refX="0" refY="0" style="overflow:visible"><path id="path4225" d="M 0.0,0.0 L 5.0,-5.0 L -12.5,0.0 L 5.0,5.0 L 0.0,0.0 z" transform="scale(0.4) rotate(180) translate(10,0)" style="fill-rule:evenodd;stroke:#000;stroke-width:1pt"/></marker><marker id="Arrow1Lstart" orient="auto" refX="0" refY="0" style="overflow:visible"><path id="path4216" d="M 0.0,0.0 L 5.0,-5.0 L -12.5,0.0 L 5.0,5.0 L 0.0,0.0 z" transform="scale(0.8) translate(12.5,0)" style="fill-rule:evenodd;stroke:#000;stroke-width:1pt"/></marker></defs><metadata id="metadata7"/><g id="layer1"><rect style="fill:#000;fill-opacity:1;fill-rule:nonzero;stroke:none;stroke-width:100;stroke-linecap:square;stroke-linejoin:miter;stroke-miterlimit:4;stroke-dasharray:none;stroke-dashoffset:700;stroke-opacity:1" id="rect4287" width="375" height="375" x="500" y="250" rx="4.311" ry="0"/><rect id="rect4351" width="375" height="375" x="1125" y="250" rx="0" ry="0" style="fill:#000;fill-opacity:1;fill-rule:nonzero;stroke:none;stroke-width:100;stroke-linecap:square;stroke-linejoin:miter;stroke-miterlimit:4;stroke-dasharray:none;stroke-dashoffset:700;stroke-opacity:1"/><rect id="rect4353" width="375" height="375" x="500" y="875" rx="0" ry="0" style="fill:#000;fill-opacity:1;fill-rule:nonzero;stroke:none;stroke-width:100;stroke-linecap:square;stroke-linejoin:miter;stroke-miterlimit:4;stroke-dasharray:none;stroke-dashoffset:700;stroke-opacity:1"/><rect style="fill:#000;fill-opacity:1;fill-rule:nonzero;stroke:none;stroke-width:100;stroke-linecap:square;stroke-linejoin:miter;stroke-miterlimit:4;stroke-dasharray:none;stroke-dashoffset:700;stroke-opacity:1" id="rect4355" width="375" height="375" x="500" y="1500" rx="0" ry="0"/><rect style="fill:#000;fill-opacity:1;fill-rule:nonzero;stroke:none;stroke-width:100;stroke-linecap:square;stroke-linejoin:miter;stroke-miterlimit:4;stroke-dasharray:none;stroke-dashoffset:700;stroke-opacity:1" id="rect4366" width="375" height="375" x="1125" y="875" rx="0" ry="0"/><rect id="rect4368" width="375" height="375" x="1125" y="1500" rx="0" ry="0" style="fill:#000;fill-opacity:1;fill-rule:nonzero;stroke:none;stroke-width:100;stroke-linecap:square;stroke-linejoin:miter;stroke-miterlimit:4;stroke-dasharray:none;stroke-dashoffset:700;stroke-opacity:1"/></g></svg>