<svg xmlns="http://www.w3.org/2000/svg" xmlns:svg="http://www.w3.org/2000/svg" id="svg2" width="2000" height="2000" version="1.1" viewBox="0 0 2000 2000"><metadata id="metadata7"/><g id="layer1" transform="translate(0,947.63784)"><path style="opacity:1;fill:#000;fill-opacity:1;stroke:none;stroke-width:20;stroke-linecap:butt;stroke-linejoin:round;stroke-miterlimit:4;stroke-dasharray:none;stroke-opacity:1" id="path4136" d="m 1511.4506,-654.72644 a 415.8,415.8 0 0 0 -415.8,415.8 415.8,415.8 0 0 0 415.8,415.79999 415.8,415.8 0 0 0 397.1936,-292.82632 l -298.3779,79.949907 -232.3129,-152.985617 124.6948,-248.64533 313.2689,-83.94052 a 415.8,415.8 0 0 0 -304.4665,-133.15211 z"/><path style="opacity:1;fill:#000;fill-opacity:1;stroke:none;stroke-width:20;stroke-linecap:butt;stroke-linejoin:round;stroke-miterlimit:4;stroke-dasharray:none;stroke-opacity:1" id="rect4219" d="M 1018.8485,-99.53312 96.599043,532.38274 C 68.123361,616.55765 160.52336,755.15765 255.59426,759.45077 L 1158.475,141.09717 C 1085.6838,79.298674 1036.3803,-5.6701798 1018.8485,-99.53312 Z"/></g></svg>