<svg xmlns="http://www.w3.org/2000/svg" xmlns:svg="http://www.w3.org/2000/svg" id="svg3891" width="2048" height="2048" version="1.1"><metadata id="metadata3896"/><g id="layer1" transform="translate(0,995.63783)"><g id="layer1-6" transform="matrix(96.752895,0,0,96.752895,55.328158,-100816.34)" style="display:inline"><path style="color:#000;font-style:normal;font-variant:normal;font-weight:400;font-stretch:normal;font-size:medium;line-height:normal;font-family:sans-serif;text-indent:0;text-align:start;text-decoration:none;text-decoration-line:none;text-decoration-style:solid;text-decoration-color:#000;letter-spacing:normal;word-spacing:normal;text-transform:none;direction:ltr;block-progression:tb;writing-mode:lr-tb;baseline-shift:baseline;text-anchor:start;white-space:normal;clip-rule:nonzero;display:inline;overflow:visible;visibility:visible;opacity:1;isolation:auto;mix-blend-mode:normal;color-interpolation:sRGB;color-interpolation-filters:linearRGB;solid-color:#000;solid-opacity:1;fill:#000;fill-opacity:1;fill-rule:nonzero;stroke:none;stroke-width:1.343629;stroke-linecap:round;stroke-linejoin:miter;stroke-miterlimit:4;stroke-dasharray:none;stroke-dashoffset:0;stroke-opacity:1;color-rendering:auto;image-rendering:auto;shape-rendering:auto;text-rendering:auto;enable-background:accumulate" id="rect4089" d="m 3.4296875,1038.3672 1.3325877,12.7308 10.5912408,0 1.228186,-12.7284 -13.1520736,0 z m 1.4921875,1.3437 10.185547,0 -0.972656,10.0411 -8.1582035,0 z"/><g id="g4275" transform="matrix(1,0,0,0.90111263,0,103.41515)"><path id="path4092" d="m 7.0333918,1040.9794 0.9432241,7.504" style="fill:none;stroke:#000;stroke-width:1.343629;stroke-linecap:round;stroke-linejoin:miter;stroke-miterlimit:4;stroke-opacity:1;stroke-dasharray:none"/><path id="path4092-2" d="m 12.990235,1040.9794 -0.943224,7.504" style="fill:none;stroke:#000;stroke-width:1.343629;stroke-linecap:round;stroke-linejoin:miter;stroke-miterlimit:4;stroke-opacity:1;stroke-dasharray:none"/></g><path style="fill:#000;fill-opacity:1;stroke:none" id="rect4121" d="m 7.2638322,1035.194 -4.2854023,1.2542 0,0.6276 14.0667651,0 0,-0.6276 -4.337726,-1.2542 z"/><path style="display:inline;fill:#000;fill-opacity:1;stroke:#000;stroke-width:.72291225;stroke-linecap:round;stroke-linejoin:round;stroke-miterlimit:4;stroke-dasharray:none;stroke-dashoffset:0;stroke-opacity:1" id="rect4121-6" d="m 7.6269598,1033.8929 4.7697062,0 0,1.737 -4.7697062,0 z"/></g></g></svg>