<svg xmlns="http://www.w3.org/2000/svg" xmlns:svg="http://www.w3.org/2000/svg" id="svg2" width="2000" height="2000" version="1.1" viewBox="0 0 2000 2000"><metadata id="metadata7"/><g id="layer1" transform="translate(0,947.63784)"><path style="opacity:1;fill:#000;fill-opacity:1;stroke:none;stroke-width:20;stroke-linecap:butt;stroke-linejoin:round;stroke-miterlimit:4;stroke-dasharray:none;stroke-opacity:1" id="path4136" d="M 1511.4512 292.91211 C 1401.1742 292.91211 1295.4131 336.71964 1217.4355 414.69727 C 1139.4579 492.6749 1095.6504 598.43392 1095.6504 708.71094 C 1095.6504 818.98795 1139.4579 924.74894 1217.4355 1002.7266 C 1295.4131 1080.7042 1401.1742 1124.5117 1511.4512 1124.5117 C 1693.7196 1124.5097 1854.7383 1005.8001 1908.6445 831.68555 L 1610.2656 911.63477 L 1377.9531 758.64844 L 1502.6484 510.00391 L 1659.2832 468.0332 L 1815.918 426.06445 C 1737.3474 341.29169 1627.0356 293.04901 1511.4512 292.91211 z M 1018.8477 848.10547 L 96.599609 1480.0215 C 68.123927 1564.1964 160.52285 1702.7948 255.59375 1707.0879 L 1158.4746 1088.7344 C 1085.6834 1026.9359 1036.3795 941.96841 1018.8477 848.10547 z" transform="translate(0,-947.63784)"/></g></svg>